<svg height="512pt" viewBox="0 -64 512 512" width="512pt" xmlns="http://www.w3.org/2000/svg"><path d="m190.667969 94.265625h18.199219v18.199219h-18.199219zm0 0"/><path d="m94.265625 238.867188h18.203125v50.332031h-18.203125zm0 0"/><path d="m408.632812 238.867188h-41.234374v18.199218h41.234374c2.429688 0 4.710938-.945312 6.421876-2.660156 1.734374-1.726562 2.679687-4.007812 2.679687-6.4375 0-2.433594-.945313-4.714844-2.660156-6.421875-1.730469-1.734375-4.011719-2.679687-6.441407-2.679687zm0 0"/><path d="m482 0h-452c-16.570312 0-30 13.429688-30 30v323.46875c0 16.566406 13.429688 30 30 30h452c16.570312 0 30-13.433594 30-30v-323.46875c0-16.570312-13.429688-30-30-30zm-97.46875 79.265625c0-8.285156 6.71875-15 15-15h33.203125c8.28125 0 15 6.714844 15 15s-6.71875 15-15 15h-18.203125v10.167969h18.203125c8.28125 0 15 6.714844 15 15 0 8.28125-6.71875 15-15 15h-18.203125v10.164062h18.203125c8.28125 0 15 6.71875 15 15 0 8.285156-6.71875 15-15 15h-33.203125c-8.28125 0-15-6.714844-15-15zm-242.0625 224.933594c0 8.285156-6.71875 15-15 15h-48.203125c-8.28125 0-15-6.714844-15-15v-80.332031c0-8.285157 6.71875-15 15-15h48.203125c8.28125 0 15 6.714843 15 15zm-30-159.601563v-17.132812c0-8.28125 6.714844-15 15-15 8.28125 0 15 6.71875 15 15v32.132812c0 8.285156-6.71875 15-15 15h-48.203125c-8.28125 0-15-6.714844-15-15v-80.332031c0-8.285156 6.71875-15 15-15h48.203125c8.28125 0 15 6.714844 15 15s-6.71875 15-15 15h-33.203125v50.332031zm126.398438 127.46875c0 3.246094-1.054688 6.402344-3 9l-24.101563 32.132813c-2.832031 3.777343-7.277344 6-12 6s-9.167969-2.222657-12-6l-24.101563-32.132813c-1.945312-2.597656-3-5.753906-3-9v-48.199218c0-8.285157 6.71875-15 15-15 8.285157 0 15 6.714843 15 15v43.199218l9.101563 12.132813 9.101563-12.132813v-43.199218c0-8.285157 6.714843-15 15-15 8.28125 0 15 6.714843 15 15zm0-112.46875c0 8.285156-6.71875 15-15 15-8.285157 0-15-6.714844-15-15v-17.132812h-18.199219v17.132812c0 8.285156-6.71875 15-15 15-8.285157 0-15-6.714844-15-15v-80.332031c0-8.285156 6.714843-15 15-15h48.199219c8.28125 0 15 6.714844 15 15zm65.332031 89.433594c8.285156 0 15 6.71875 15 15 0 8.285156-6.714844 15-15 15h-18.199219v10.167969h18.199219c8.285156 0 15 6.714843 15 15 0 8.285156-6.714844 15-15 15h-33.199219c-8.285156 0-15-6.714844-15-15v-80.332031c0-8.285157 6.714844-15 15-15h33.199219c8.285156 0 15 6.714843 15 15 0 8.285156-6.714844 15-15 15h-18.199219v10.164062zm21.96875-154.765625v65.332031c0 8.285156-6.71875 15-15 15-8.285157 0-15-6.714844-15-15v-65.332031h-10.167969v65.332031c0 8.285156-6.714844 15-15 15s-15-6.714844-15-15v-80.332031c0-8.285156 6.714844-15 15-15h80.335938c8.28125 0 15 6.714844 15 15v80.332031c0 8.285156-6.71875 15-15 15-8.285157 0-15-6.714844-15-15v-65.332031zm117.171875 220.539063c-2.929688 2.929687-6.769532 4.394531-10.605469 4.394531-3.839844 0-7.679687-1.464844-10.605469-4.394531l-27.742187-27.738282h-26.988281v17.132813c0 8.285156-6.714844 15-15 15-8.28125 0-15-6.714844-15-15v-80.332031c0-8.285157 6.71875-15 15-15h56.234374c10.453126 0 20.273438 4.070312 27.652344 11.460937 7.375 7.363281 11.445313 17.183594 11.445313 27.640625 0 10.453125-4.070313 20.273438-11.464844 27.652344-1.847656 1.855468-3.851563 3.496094-5.980469 4.917968l13.054688 13.054688c5.859375 5.855469 5.859375 15.355469 0 21.210938zm0 0"/></svg>