<svg width="28" height="27" viewBox="0 0 28 27" fill="none" xmlns="http://www.w3.org/2000/svg">
<path d="M14.0679 7.03588C10.1135 7.03588 6.92382 10.0462 6.92382 13.7783C6.92382 17.5104 10.1135 20.5208 14.0679 20.5208C18.0223 20.5208 21.2119 17.5104 21.2119 13.7783C21.2119 10.0462 18.0223 7.03588 14.0679 7.03588ZM14.0679 18.1618C11.5124 18.1618 9.4233 16.196 9.4233 13.7783C9.4233 11.3607 11.5062 9.39486 14.0679 9.39486C16.6295 9.39486 18.7124 11.3607 18.7124 13.7783C18.7124 16.196 16.6233 18.1618 14.0679 18.1618ZM23.1705 6.76008C23.1705 7.63443 22.4244 8.33273 21.5041 8.33273C20.5777 8.33273 19.8378 7.62856 19.8378 6.76008C19.8378 5.89161 20.5839 5.18743 21.5041 5.18743C22.4244 5.18743 23.1705 5.89161 23.1705 6.76008ZM27.9021 8.3562C27.7964 6.24956 27.2865 4.38351 25.6513 2.84607C24.0223 1.30863 22.0451 0.827443 19.813 0.721817C17.5124 0.598587 10.6171 0.598587 8.31657 0.721817C6.09066 0.821575 4.11346 1.30276 2.47822 2.8402C0.842989 4.37764 0.339361 6.24369 0.227444 8.35034C0.0968741 10.5215 0.0968741 17.0292 0.227444 19.2004C0.333144 21.3071 0.842989 23.1731 2.47822 24.7106C4.11346 26.248 6.08444 26.7292 8.31657 26.8348C10.6171 26.9581 17.5124 26.9581 19.813 26.8348C22.0451 26.7351 24.0223 26.2539 25.6513 24.7106C27.2803 23.1731 27.7902 21.3071 27.9021 19.2004C28.0326 17.0292 28.0326 10.5274 27.9021 8.3562ZM24.93 21.5301C24.4451 22.6802 23.5062 23.5663 22.2813 24.0299C20.4471 24.7164 16.0948 24.558 14.0679 24.558C12.0409 24.558 7.68237 24.7106 5.85439 24.0299C4.63574 23.5722 3.69688 22.6861 3.20568 21.5301C2.47822 19.799 2.6461 15.6913 2.6461 13.7783C2.6461 11.8653 2.48444 7.75179 3.20568 6.02657C3.69066 4.87643 4.62952 3.99034 5.85439 3.52676C7.68859 2.8402 12.0409 2.99864 14.0679 2.99864C16.0948 2.99864 20.4534 2.84607 22.2813 3.52676C23.5 3.98448 24.4389 4.87056 24.93 6.02657C25.6575 7.75766 25.4896 11.8653 25.4896 13.7783C25.4896 15.6913 25.6575 19.8048 24.93 21.5301Z" fill="white"/>
</svg>
