<svg width="29" height="22" viewBox="0 0 29 22" fill="none" xmlns="http://www.w3.org/2000/svg">
<path d="M25.2702 6.10898C25.2879 6.33806 25.2879 6.56718 25.2879 6.79625C25.2879 13.7833 19.5274 21.834 8.9988 21.834C5.75514 21.834 2.74194 20.9667 0.207275 19.4614C0.668138 19.5104 1.11121 19.5268 1.58981 19.5268C4.26622 19.5268 6.73001 18.6923 8.69747 17.2687C6.18054 17.2196 4.07128 15.6978 3.34455 13.6033C3.69907 13.6524 4.05354 13.6851 4.4258 13.6851C4.93981 13.6851 5.45386 13.6196 5.9324 13.5052C3.30914 13.0142 1.34162 10.887 1.34162 8.31802V8.25259C2.10376 8.64531 2.99007 8.89075 3.92942 8.92344C2.38736 7.97436 1.37708 6.35443 1.37708 4.52174C1.37708 3.53997 1.66063 2.64 2.15695 1.85456C4.97522 5.06174 9.21147 7.15618 13.9617 7.38531C13.8731 6.99259 13.8199 6.58355 13.8199 6.17446C13.8199 3.26179 16.3723 0.88916 19.545 0.88916C21.1934 0.88916 22.6823 1.52732 23.7281 2.5582C25.022 2.32913 26.2627 1.8873 27.3617 1.28188C26.9362 2.50914 26.0323 3.54002 24.8447 4.1945C25.9969 4.08002 27.1135 3.78541 28.1415 3.37638C27.3618 4.42357 26.3869 5.35624 25.2702 6.10898Z" fill="white"/>
</svg>
