<svg width="35" height="19" viewBox="0 0 35 19" fill="none" xmlns="http://www.w3.org/2000/svg">
<path d="M33.8378 1.76735C34.0756 1.04828 33.8378 0.519043 32.6936 0.519043H28.9074C27.9432 0.519043 27.4996 0.973495 27.2618 1.47972C27.2618 1.47972 25.3333 5.68484 22.6078 8.41156C21.7271 9.19966 21.3222 9.45277 20.8401 9.45277C20.6022 9.45277 20.2358 9.19966 20.2358 8.48059V1.76735C20.2358 0.904465 19.9658 0.519043 19.1687 0.519043H13.2163C12.612 0.519043 12.2521 0.921722 12.2521 1.29564C12.2521 2.1125 13.6148 2.30234 13.7562 4.60336V9.59659C13.7562 10.6896 13.5377 10.8909 13.0556 10.8909C11.7699 10.8909 8.64586 6.66853 6.79455 1.83638C6.42172 0.898712 6.05532 0.519043 5.08467 0.519043H1.29849C0.218557 0.519043 0 0.973495 0 1.47972C0 2.37712 1.28563 6.83536 5.98461 12.726C9.11511 16.747 13.5248 18.9272 17.536 18.9272C19.9465 18.9272 20.2422 18.444 20.2422 17.6099C20.2422 13.7672 20.0237 13.4048 21.2322 13.4048C21.7914 13.4048 22.7556 13.6579 25.0055 15.5965C27.5768 17.8975 28.001 18.9272 29.4409 18.9272H33.2271C34.307 18.9272 34.8534 18.444 34.5384 17.4891C33.8185 15.4815 28.9524 11.3511 28.7338 11.075C28.1746 10.4307 28.3353 10.1431 28.7338 9.56783C28.7403 9.56207 33.3621 3.74048 33.8378 1.76735Z" fill="white"/>
</svg>
